<svg width="86" height="19" viewBox="0 0 86 19" fill="none" xmlns="http://www.w3.org/2000/svg">
<path d="M22.2791 7.76194L17.3262 0.981994C16.9571 0.476407 16.3873 0.1875 15.7613 0.1875C15.1354 0.1875 14.5656 0.477745 14.1964 0.981994L13.6574 1.71897L13.1184 0.981994C12.7492 0.476407 12.1794 0.1875 11.5534 0.1875C10.9275 0.1875 10.3577 0.477745 9.98853 0.981994L9.4562 1.71095L8.92386 0.981994C8.5547 0.476407 7.98491 0.1875 7.35895 0.1875C6.73298 0.1875 6.16319 0.477745 5.79404 0.981994L0.841159 7.76194C0.13628 8.7263 0.13628 10.0237 0.841159 10.9881L5.79404 17.768C6.16319 18.2736 6.73298 18.5625 7.35895 18.5625C7.98491 18.5625 8.5547 18.2723 8.92386 17.768L11.5601 14.1593L12.1045 14.9044C12.1058 14.907 12.1085 14.9097 12.1099 14.9124L14.1964 17.768C14.5656 18.2736 15.1354 18.5625 15.7613 18.5625C16.3873 18.5625 16.9571 18.2723 17.3262 17.768L22.2791 10.9881C22.984 10.0237 22.984 8.7263 22.2791 7.76194ZM10.7804 1.55981C10.9636 1.30969 11.2458 1.16657 11.5548 1.16657C11.8638 1.16657 12.1473 1.30969 12.3292 1.55981L13.0528 2.54958L11.5615 4.59065L10.0634 2.54022L10.7804 1.55981ZM8.13471 17.1902C7.95147 17.4403 7.66926 17.5834 7.36029 17.5834C7.05132 17.5834 6.76776 17.4403 6.58586 17.1902L1.63298 10.4102C1.18089 9.79097 1.18089 8.95903 1.63298 8.33841L6.58586 1.55847C6.7691 1.30835 7.05132 1.16523 7.36029 1.16523C7.66926 1.16523 7.95281 1.30835 8.13471 1.55847L8.85163 2.53888L5.03699 7.7606C4.33212 8.72496 4.33212 10.0224 5.03833 10.9881L5.32858 11.3813L7.88594 14.903C8.21096 15.3484 8.69381 15.6266 9.23283 15.6855L8.13471 17.1902ZM10.2266 14.3279C10.0434 14.5767 9.76115 14.7211 9.45084 14.7211C9.14188 14.7211 8.85832 14.578 8.67775 14.3292L6.04817 10.7085L6.04683 10.7099L5.82747 10.4116C5.37539 9.79231 5.37539 8.96037 5.82747 8.33975L9.45753 3.37082L10.9556 5.42126L9.24487 7.76328C8.53999 8.72764 8.53999 10.025 9.24487 10.9894L10.9556 13.3314L10.2266 14.3279ZM11.5615 6.24919L13.0876 8.33841C13.5397 8.95769 13.5397 9.78963 13.0876 10.4102L11.5615 12.4995L10.0353 10.4102C9.58326 9.79097 9.58326 8.95903 10.0353 8.33841L11.5615 6.24919ZM13.8781 10.9881C14.583 10.0237 14.583 8.7263 13.8781 7.76194L12.1674 5.41992L13.6587 3.37885L17.2821 8.33975C17.7342 8.95903 17.7342 9.79097 17.2794 10.4143L16.6989 11.2208L14.4425 14.3279C14.2593 14.578 13.977 14.7211 13.6681 14.7211C13.3618 14.7211 13.0822 14.5807 12.9003 14.3359L12.166 13.3314L13.8781 10.9881ZM21.49 10.4102L16.5371 17.1902C16.3538 17.4403 16.0716 17.5834 15.7627 17.5834C15.4537 17.5834 15.1701 17.4403 14.9882 17.1902L13.8901 15.6868C14.4278 15.628 14.9106 15.3497 15.237 14.903L17.1751 12.2333L17.1778 12.2346L17.4961 11.7933L17.8666 11.2823L17.8639 11.281L18.0739 10.9881C18.7788 10.0237 18.7788 8.7263 18.0739 7.76194L14.266 2.54958L14.9896 1.55981C15.1728 1.30969 15.455 1.16657 15.764 1.16657C16.073 1.16657 16.3552 1.30969 16.5384 1.55981L21.4913 8.33975C21.942 8.95903 21.942 9.79097 21.49 10.4102Z" fill="url(#paint0_linear_2135_4230)"/>
<path opacity="0.4" d="M9.4504 15.6989C9.3755 15.6989 9.3006 15.6949 9.22837 15.6868L8.16504 17.1528L8.96756 17.7185L10.9123 15.0488C10.5432 15.4635 10.0135 15.6989 9.4504 15.6989Z" fill="url(#paint1_linear_2135_4230)"/>
<path opacity="0.4" d="M13.6651 15.6986C13.74 15.6986 13.8149 15.6946 13.8871 15.6866L14.9505 17.1525L14.1479 17.7183L12.2139 15.0513C12.5817 15.4659 13.102 15.6986 13.6651 15.6986Z" fill="url(#paint2_linear_2135_4230)"/>
<path opacity="0.4" d="M10.9476 13.3237L11.5655 14.1677L10.6253 15.4303L10.0073 14.6104L10.9476 13.3237Z" fill="url(#paint3_linear_2135_4230)"/>
<path opacity="0.6" d="M8.8517 2.54028L9.45894 3.37624L7.25736 6.4004L6.48828 5.79182L8.8517 2.54028Z" fill="url(#paint4_linear_2135_4230)"/>
<path opacity="0.6" d="M10.9559 5.4187L11.5578 6.25466L10.1547 8.19541L9.38428 7.58684L10.9559 5.4187Z" fill="url(#paint5_linear_2135_4230)"/>
<path opacity="0.6" d="M13.0529 2.5481L13.6574 3.38004L12.1688 5.4171L11.5615 4.5865L13.0529 2.5481Z" fill="url(#paint6_linear_2135_4230)"/>
<path d="M36.9263 6.49731V11.9699H35.8003V8.48403L33.5588 11.9699H32.3001L30.0586 8.49703V11.9699H28.9326V6.49731H30.0586L32.9256 10.9934L35.8016 6.49731H36.9263Z" fill="white"/>
<path d="M53.205 6.49731V11.9699H52.079V9.69582H48.0601V11.9699H46.9341V6.49731H48.0601V8.75707H52.079V6.49731H53.205Z" fill="white"/>
<path d="M69.548 9.21604C69.548 10.6658 68.6937 11.9699 66.3404 11.9699H63.2095V6.49731H66.3404C68.8043 6.49731 69.548 7.76631 69.548 9.21604ZM68.4012 9.21604C68.4012 8.289 67.9318 7.46207 66.3144 7.46207H64.3354V11.0051H66.3131C67.9318 11.0051 68.4012 10.1431 68.4012 9.21604Z" fill="white"/>
<path d="M78.5918 9.2327C78.5918 7.45402 79.8647 6.38525 82.0529 6.38525C84.2412 6.38525 85.5141 7.45402 85.5141 9.2327C85.5141 11.0114 84.2412 12.0801 82.0529 12.0801C79.8647 12.0801 78.5918 11.0127 78.5918 9.2327ZM84.3348 9.2327C84.3348 7.9663 83.3974 7.35781 82.0529 7.35781C80.7098 7.35781 79.7451 7.9663 79.7451 9.2327C79.7451 10.5004 80.7098 11.1037 82.0529 11.1037C83.3961 11.1037 84.3348 10.5017 84.3348 9.2327Z" fill="white"/>
<path d="M42.6916 6.82478C42.5693 6.52443 42.2703 6.3125 41.9218 6.3125C41.5734 6.3125 41.2756 6.52313 41.1521 6.82218L38.7363 11.9697H39.952L40.4929 10.7774H43.3534L43.8968 11.9697H45.1242L42.6916 6.82478ZM40.9194 9.83735L41.9205 7.63091L42.9256 9.83735H40.9194Z" fill="white"/>
<path d="M58.925 6.82478C58.8027 6.52443 58.5037 6.3125 58.1552 6.3125C57.8068 6.3125 57.509 6.52313 57.3855 6.82218L54.9697 11.9697H56.1854L56.7263 10.7774H59.5868L60.1302 11.9697H61.3576L58.925 6.82478ZM57.1528 9.83735L58.1539 7.63091L59.159 9.83735H57.1528Z" fill="white"/>
<path d="M74.9665 6.82478C74.8442 6.52443 74.5452 6.3125 74.1967 6.3125C73.8483 6.3125 73.5505 6.52313 73.427 6.82218L71.0112 11.9697H72.2269L72.7678 10.7774H75.6283L76.1717 11.9697H77.3991L74.9665 6.82478ZM73.1943 9.83735L74.1954 7.63091L75.2005 9.83735H73.1943Z" fill="white"/>
<defs>
<linearGradient id="paint0_linear_2135_4230" x1="4.46481" y1="16.4711" x2="18.6571" y2="2.27885" gradientUnits="userSpaceOnUse">
<stop stop-color="#FF8506"/>
<stop offset="0.5805" stop-color="#FD3947"/>
<stop offset="1" stop-color="#FB0078"/>
</linearGradient>
<linearGradient id="paint1_linear_2135_4230" x1="10.2951" y1="15.0285" x2="8.63724" y2="17.3748" gradientUnits="userSpaceOnUse">
<stop stop-color="#78005B"/>
<stop offset="0.3483" stop-color="#7A025A" stop-opacity="0.6517"/>
<stop offset="0.51" stop-color="#820955" stop-opacity="0.49"/>
<stop offset="0.6332" stop-color="#8E154E" stop-opacity="0.3668"/>
<stop offset="0.7369" stop-color="#A12643" stop-opacity="0.2631"/>
<stop offset="0.8283" stop-color="#B83C36" stop-opacity="0.1717"/>
<stop offset="0.9111" stop-color="#D65725" stop-opacity="0.0889"/>
<stop offset="0.9857" stop-color="#F87711" stop-opacity="0.0143"/>
<stop offset="1" stop-color="#FF7E0D" stop-opacity="0"/>
</linearGradient>
<linearGradient id="paint2_linear_2135_4230" x1="14.346" y1="17.1999" x2="12.7857" y2="14.9555" gradientUnits="userSpaceOnUse">
<stop stop-color="#FF7E0D" stop-opacity="0"/>
<stop offset="0.00928743" stop-color="#F97811" stop-opacity="0.0127"/>
<stop offset="0.0651" stop-color="#D65825" stop-opacity="0.0888"/>
<stop offset="0.1269" stop-color="#B93D36" stop-opacity="0.1729"/>
<stop offset="0.1949" stop-color="#A12643" stop-opacity="0.2657"/>
<stop offset="0.272" stop-color="#8F154E" stop-opacity="0.3707"/>
<stop offset="0.3632" stop-color="#820955" stop-opacity="0.495"/>
<stop offset="0.4822" stop-color="#7A025A" stop-opacity="0.6573"/>
<stop offset="0.7336" stop-color="#78005B"/>
</linearGradient>
<linearGradient id="paint3_linear_2135_4230" x1="10.3498" y1="15.0169" x2="11.6116" y2="13.202" gradientUnits="userSpaceOnUse">
<stop stop-color="#FF7E0D" stop-opacity="0"/>
<stop offset="0.0133" stop-color="#F97910" stop-opacity="0.0192"/>
<stop offset="0.1144" stop-color="#D25427" stop-opacity="0.1659"/>
<stop offset="0.219" stop-color="#B1363A" stop-opacity="0.3175"/>
<stop offset="0.3263" stop-color="#981E48" stop-opacity="0.4731"/>
<stop offset="0.4375" stop-color="#860D53" stop-opacity="0.6344"/>
<stop offset="0.5551" stop-color="#7B0359" stop-opacity="0.8048"/>
<stop offset="0.6897" stop-color="#78005B"/>
</linearGradient>
<linearGradient id="paint4_linear_2135_4230" x1="6.6101" y1="5.91421" x2="9.41782" y2="3.10648" gradientUnits="userSpaceOnUse">
<stop stop-color="#FF4630" stop-opacity="0"/>
<stop offset="0.5722" stop-color="#B31F48" stop-opacity="0.5722"/>
<stop offset="1" stop-color="#78005B"/>
</linearGradient>
<linearGradient id="paint5_linear_2135_4230" x1="9.57989" y1="7.78198" x2="11.4501" y2="5.91176" gradientUnits="userSpaceOnUse">
<stop stop-color="#FF4630" stop-opacity="0"/>
<stop offset="0.5722" stop-color="#B31F48" stop-opacity="0.5722"/>
<stop offset="1" stop-color="#78005B"/>
</linearGradient>
<linearGradient id="paint6_linear_2135_4230" x1="11.6725" y1="4.92086" x2="13.5489" y2="3.04449" gradientUnits="userSpaceOnUse">
<stop stop-color="#FF4630" stop-opacity="0"/>
<stop offset="0.5722" stop-color="#B31F48" stop-opacity="0.5722"/>
<stop offset="1" stop-color="#78005B"/>
</linearGradient>
</defs>
</svg>
