<svg width="24" height="24" viewBox="0 0 24 24" fill="none" xmlns="http://www.w3.org/2000/svg">
<path d="M18.3158 5.68433H5.6842V18.3159H18.3158V5.68433Z" fill="white"/>
<path d="M18.3158 23.9999L24 18.3157H18.3158V23.9999Z" fill="#EA4335"/>
<path d="M24 5.68433H18.3158V18.3159H24V5.68433Z" fill="#FBBC04"/>
<path d="M18.3158 18.3157H5.6842V23.9999H18.3158V18.3157Z" fill="#34A853"/>
<path d="M0 18.3157V22.1051C0 23.152 0.847895 23.9999 1.89474 23.9999H5.68421V18.3157H0Z" fill="#188038"/>
<path d="M24 5.68421V1.89474C24 0.847895 23.1521 0 22.1053 0H18.3158V5.68421H24Z" fill="#1967D2"/>
<path d="M18.3158 0H1.89474C0.847895 0 0 0.847895 0 1.89474V18.3158H5.68421V5.68421H18.3158V0Z" fill="#4285F4"/>
<path d="M8.27522 15.4832C7.80312 15.1642 7.47627 14.6984 7.29785 14.0826L8.39364 13.6311C8.49312 14.01 8.6668 14.3037 8.91469 14.5121C9.16101 14.7205 9.46101 14.8232 9.81154 14.8232C10.17 14.8232 10.4779 14.7142 10.7352 14.4963C10.9926 14.2784 11.1221 14.0005 11.1221 13.6642C11.1221 13.32 10.9863 13.0389 10.7147 12.8211C10.4431 12.6032 10.1021 12.4942 9.69469 12.4942H9.06154V11.4095H9.62996C9.98048 11.4095 10.2757 11.3147 10.5157 11.1253C10.7557 10.9358 10.8757 10.6768 10.8757 10.3468C10.8757 10.0532 10.7684 9.81947 10.5536 9.64421C10.3389 9.46895 10.0673 9.38053 9.73733 9.38053C9.41522 9.38053 9.15943 9.46579 8.96996 9.63789C8.78061 9.81046 8.63825 10.0283 8.55627 10.2711L7.47154 9.81947C7.61522 9.4121 7.87891 9.0521 8.26575 8.74105C8.65259 8.43 9.1468 8.27368 9.7468 8.27368C10.1905 8.27368 10.59 8.35895 10.9436 8.53105C11.2973 8.70316 11.5752 8.94158 11.7757 9.24474C11.9763 9.54947 12.0757 9.89052 12.0757 10.2695C12.0757 10.6563 11.9826 10.9832 11.7963 11.2516C11.61 11.52 11.381 11.7253 11.1094 11.8689V11.9337C11.4601 12.0783 11.7647 12.3157 11.9905 12.6205C12.2194 12.9284 12.3347 13.2963 12.3347 13.7258C12.3347 14.1553 12.2257 14.5389 12.0079 14.8753C11.79 15.2116 11.4884 15.4768 11.1063 15.6695C10.7226 15.8621 10.2915 15.96 9.81311 15.96C9.2589 15.9616 8.74733 15.8021 8.27522 15.4832ZM15.0063 10.0453L13.8031 10.9153L13.2015 10.0026L15.36 8.44579H16.1873V15.7895H15.0063V10.0453Z" fill="#4285F4"/>
</svg>
