<svg width="182" height="44" viewBox="0 0 182 44" fill="none" xmlns="http://www.w3.org/2000/svg">
<path d="M53.3942 18.1374L41.5343 1.90246C40.6503 0.691805 39.2859 0 37.787 0C36.2881 0 34.9237 0.695007 34.0398 1.90246L32.749 3.6672L31.4583 1.90246C30.5743 0.691805 29.2099 0 27.711 0C26.2121 0 24.8477 0.695007 23.9638 1.90246L22.6891 3.64799L21.4143 1.90246C20.5304 0.691805 19.166 0 17.6671 0C16.1682 0 14.8038 0.695007 13.9198 1.90246L2.05985 18.1374C0.371977 20.4466 0.371977 23.5534 2.05985 25.8626L13.9198 42.0975C14.8038 43.3082 16.1682 44 17.6671 44C19.166 44 20.5304 43.305 21.4143 42.0975L27.7271 33.4564L29.0306 35.2404C29.0338 35.2468 29.0402 35.2532 29.0434 35.2596L34.0398 42.0975C34.9237 43.3082 36.2881 44 37.787 44C39.2859 44 40.6503 43.305 41.5343 42.0975L53.3942 25.8626C55.0821 23.5534 55.0821 20.4466 53.3942 18.1374ZM25.8598 3.28607C26.2986 2.68715 26.9744 2.34445 27.7142 2.34445C28.4541 2.34445 29.1331 2.68715 29.5687 3.28607L31.3014 5.65614L27.7303 10.5436L24.1431 5.63372L25.8598 3.28607ZM19.5247 40.7139C19.0859 41.3129 18.4101 41.6556 17.6703 41.6556C16.9304 41.6556 16.2514 41.3129 15.8159 40.7139L3.95591 24.479C2.87336 22.9961 2.87336 21.0039 3.95591 19.5178L15.8159 3.28287C16.2546 2.68394 16.9304 2.34124 17.6703 2.34124C18.4101 2.34124 19.0891 2.68394 19.5247 3.28287L21.2414 5.63052L12.107 18.1342C10.4191 20.4434 10.4191 23.5502 12.1102 25.8626L12.8052 26.8042L18.929 35.2371C19.7073 36.3037 20.8635 36.9699 22.1542 37.1108L19.5247 40.7139ZM24.5339 33.86C24.0951 34.4557 23.4193 34.8016 22.6762 34.8016C21.9364 34.8016 21.2574 34.4589 20.825 33.8632L14.5283 25.1932L14.5251 25.1964L13.9999 24.4822C12.9173 22.9993 12.9173 21.0071 13.9999 19.521L22.6923 7.62265L26.2794 12.5325L22.183 18.1406C20.4951 20.4499 20.4951 23.5566 22.183 25.8658L26.2794 31.4739L24.5339 33.86ZM27.7303 14.5151L31.3846 19.5178C32.4672 21.0007 32.4672 22.9929 31.3846 24.479L27.7303 29.4817L24.0759 24.479C22.9933 22.9961 22.9933 21.0039 24.0759 19.5178L27.7303 14.5151ZM33.2775 25.8626C34.9654 23.5534 34.9654 20.4466 33.2775 18.1374L29.1811 12.5293L32.7522 7.64187L41.4286 19.521C42.5112 21.0039 42.5112 22.9961 41.4222 24.4886L40.0322 26.4199L34.6291 33.86C34.1903 34.4589 33.5145 34.8016 32.7747 34.8016C32.0412 34.8016 31.3718 34.4653 30.9363 33.8792L29.1779 31.4739L33.2775 25.8626ZM51.5046 24.479L39.6447 40.7139C39.2059 41.3129 38.5301 41.6556 37.7902 41.6556C37.0504 41.6556 36.3714 41.3129 35.9358 40.7139L33.3063 37.114C34.5938 36.9731 35.7501 36.3069 36.5315 35.2371L41.1724 28.8444L41.1788 28.8476L41.9411 27.7906L42.8282 26.5672L42.8218 26.564L43.3247 25.8626C45.0125 23.5534 45.0125 20.4466 43.3247 18.1374L34.2063 5.65614L35.939 3.28607C36.3778 2.68715 37.0536 2.34445 37.7934 2.34445C38.5333 2.34445 39.2091 2.68715 39.6479 3.28607L51.5078 19.521C52.5872 21.0039 52.5871 22.9961 51.5046 24.479Z" fill="url(#paint0_linear_910_6771)"/>
<path d="M22.676 37.1425C22.4967 37.1425 22.3173 37.1329 22.1444 37.1137L19.5981 40.6239L21.5198 41.9787L26.1767 35.5859C25.2927 36.5788 24.0244 37.1425 22.676 37.1425Z" fill="url(#paint1_linear_910_6771)"/>
<path d="M32.768 37.1429C32.9474 37.1429 33.1267 37.1333 33.2997 37.1141L35.8459 40.6244L33.9242 41.9791L29.293 35.5928C30.1737 36.5856 31.4196 37.1429 32.768 37.1429Z" fill="url(#paint2_linear_910_6771)"/>
<path d="M26.2594 31.4541L27.7391 33.4751L25.4875 36.4985L24.0078 34.5352L26.2594 31.4541Z" fill="url(#paint3_linear_910_6771)"/>
<path d="M21.2399 5.63379L22.694 7.63554L17.4222 14.8771L15.5806 13.4198L21.2399 5.63379Z" fill="url(#paint4_linear_910_6771)"/>
<path d="M26.2779 12.5264L27.7192 14.5281L24.3595 19.1754L22.5146 17.7181L26.2779 12.5264Z" fill="url(#paint5_linear_910_6771)"/>
<path d="M31.3011 5.65332L32.7488 7.64546L29.1841 12.5233L27.73 10.5344L31.3011 5.65332Z" fill="url(#paint6_linear_910_6771)"/>
<path d="M67.0234 24.0366H69.7906C69.8453 24.5012 70.0571 24.9249 70.4261 25.3075C70.8087 25.6765 71.3075 25.9703 71.9224 26.1889C72.5374 26.3939 73.2275 26.4964 73.9927 26.4964C74.6896 26.4964 75.2636 26.4212 75.7145 26.2709C76.1655 26.1206 76.5003 25.9088 76.7189 25.6355C76.9376 25.3622 77.0469 25.0342 77.0469 24.6516C77.0469 24.2826 76.9102 24.0025 76.6369 23.8112C76.3636 23.6062 75.9332 23.4422 75.3456 23.3192C74.758 23.1826 73.9859 23.0459 73.0293 22.9092C72.2777 22.7999 71.5671 22.6496 70.8975 22.4583C70.2279 22.2533 69.6335 21.9937 69.1142 21.6794C68.6086 21.3651 68.2055 20.9824 67.9048 20.5315C67.6179 20.0669 67.4744 19.5203 67.4744 18.8917C67.4744 18.1127 67.693 17.4295 68.1303 16.8419C68.5813 16.2543 69.244 15.7965 70.1186 15.4685C70.9932 15.1405 72.0659 14.9766 73.3368 14.9766C75.2499 14.9766 76.7189 15.3865 77.7438 16.2064C78.7824 17.0127 79.288 18.1264 79.2607 19.5476H76.5959C76.5413 18.7413 76.1997 18.1606 75.5711 17.8053C74.9561 17.45 74.1772 17.2723 73.2343 17.2723C72.3597 17.2723 71.6355 17.4021 71.0615 17.6618C70.5012 17.9214 70.2211 18.3655 70.2211 18.9941C70.2211 19.2401 70.2894 19.4588 70.4261 19.6501C70.5627 19.8277 70.795 19.9849 71.123 20.1215C71.451 20.2582 71.8951 20.388 72.4554 20.511C73.0157 20.634 73.7126 20.757 74.5462 20.88C75.3251 20.9893 76.0288 21.1396 76.6574 21.3309C77.2997 21.5086 77.8463 21.7477 78.2973 22.0483C78.7619 22.3353 79.1172 22.7043 79.3632 23.1552C79.6091 23.6062 79.7321 24.1596 79.7321 24.8155C79.7321 25.6218 79.5203 26.3256 79.0967 26.9268C78.6867 27.5144 78.0445 27.9722 77.1699 28.3002C76.309 28.6282 75.1884 28.7921 73.8082 28.7921C72.8243 28.7921 71.9566 28.6897 71.205 28.4847C70.4534 28.266 69.8043 27.9791 69.2577 27.6238C68.7111 27.2685 68.267 26.879 67.9253 26.4554C67.5837 26.0318 67.3377 25.6081 67.1874 25.1845C67.0508 24.7609 66.9961 24.3783 67.0234 24.0366Z" fill="#F7653B"/>
<path d="M82.1988 15.243H96.1783V17.5183H82.1988V15.243ZM87.8357 17.2313H90.5619V28.5052H87.8357V17.2313Z" fill="#F7653B"/>
<path d="M100.619 25.615V23.3397H109.393V25.615H100.619ZM97.3193 28.5052L103.551 15.243H106.502L112.795 28.5052H109.823L104.371 16.5549H105.682L100.271 28.5052H97.3193Z" fill="#F7653B"/>
<path d="M115.953 28.5052V15.243H124.952C125.977 15.243 126.865 15.3865 127.616 15.6735C128.382 15.9468 128.976 16.3841 129.4 16.9854C129.823 17.573 130.035 18.3314 130.035 19.2606C130.035 19.8892 129.926 20.4222 129.707 20.8595C129.489 21.2967 129.181 21.652 128.785 21.9253C128.402 22.1987 127.958 22.4105 127.452 22.5608C126.947 22.6974 126.407 22.7863 125.833 22.8273L125.546 22.6633C126.503 22.6769 127.289 22.7589 127.903 22.9092C128.518 23.0459 128.976 23.3055 129.277 23.6882C129.591 24.0571 129.748 24.6106 129.748 25.3485V28.5052H127.022V25.533C127.022 25.0274 126.933 24.6379 126.756 24.3646C126.578 24.0776 126.257 23.8795 125.792 23.7702C125.341 23.6608 124.685 23.6062 123.824 23.6062H118.679V28.5052H115.953ZM118.679 21.4744H124.952C125.717 21.4744 126.298 21.2899 126.694 20.921C127.104 20.552 127.309 20.0532 127.309 19.4246C127.309 18.8233 127.104 18.3655 126.694 18.0512C126.298 17.7369 125.717 17.5798 124.952 17.5798H118.679V21.4744Z" fill="#F7653B"/>
<path d="M132.949 15.243H146.929V17.5183H132.949V15.243ZM138.586 17.2313H141.313V28.5052H138.586V17.2313Z" fill="#F7653B"/>
<path d="M152.867 22.9707V26.2299H163.095V28.5052H150.141V15.243H163.075V17.5183H152.867V20.8185H161.23V22.9707H152.867Z" fill="#F7653B"/>
<path d="M167.124 28.5052V15.243H176.123C177.148 15.243 178.036 15.3865 178.788 15.6735C179.553 15.9468 180.147 16.3841 180.571 16.9854C180.994 17.573 181.206 18.3314 181.206 19.2606C181.206 19.8892 181.097 20.4222 180.878 20.8595C180.66 21.2967 180.352 21.652 179.956 21.9253C179.573 22.1987 179.129 22.4105 178.624 22.5608C178.118 22.6974 177.578 22.7863 177.004 22.8273L176.717 22.6633C177.674 22.6769 178.46 22.7589 179.075 22.9092C179.689 23.0459 180.147 23.3055 180.448 23.6882C180.762 24.0571 180.919 24.6106 180.919 25.3485V28.5052H178.193V25.533C178.193 25.0274 178.104 24.6379 177.927 24.3646C177.749 24.0776 177.428 23.8795 176.963 23.7702C176.512 23.6608 175.856 23.6062 174.995 23.6062H169.85V28.5052H167.124ZM169.85 21.4744H176.123C176.888 21.4744 177.469 21.2899 177.865 20.921C178.275 20.552 178.48 20.0532 178.48 19.4246C178.48 18.8233 178.275 18.3655 177.865 18.0512C177.469 17.7369 176.888 17.5798 176.123 17.5798H169.85V21.4744Z" fill="#F7653B"/>
<defs>
<linearGradient id="paint0_linear_910_6771" x1="10.7369" y1="38.9921" x2="44.7212" y2="5.00786" gradientUnits="userSpaceOnUse">
<stop stop-color="#FF8506"/>
<stop offset="0.5805" stop-color="#FD3947"/>
<stop offset="1" stop-color="#FB0078"/>
</linearGradient>
<linearGradient id="paint1_linear_910_6771" x1="24.6988" y1="35.5374" x2="20.7289" y2="41.1556" gradientUnits="userSpaceOnUse">
<stop stop-color="#78005B"/>
<stop offset="0.3483" stop-color="#7A025A" stop-opacity="0.6517"/>
<stop offset="0.51" stop-color="#820955" stop-opacity="0.49"/>
<stop offset="0.6332" stop-color="#8E154E" stop-opacity="0.3668"/>
<stop offset="0.7369" stop-color="#A12643" stop-opacity="0.2631"/>
<stop offset="0.8283" stop-color="#B83C36" stop-opacity="0.1717"/>
<stop offset="0.9111" stop-color="#D65725" stop-opacity="0.0889"/>
<stop offset="0.9857" stop-color="#F87711" stop-opacity="0.0143"/>
<stop offset="1" stop-color="#FF7E0D" stop-opacity="0"/>
</linearGradient>
<linearGradient id="paint2_linear_910_6771" x1="34.3986" y1="40.7378" x2="30.6622" y2="35.3635" gradientUnits="userSpaceOnUse">
<stop stop-color="#FF7E0D" stop-opacity="0"/>
<stop offset="0.00928743" stop-color="#F97811" stop-opacity="0.0127"/>
<stop offset="0.0651" stop-color="#D65825" stop-opacity="0.0888"/>
<stop offset="0.1269" stop-color="#B93D36" stop-opacity="0.1729"/>
<stop offset="0.1949" stop-color="#A12643" stop-opacity="0.2657"/>
<stop offset="0.272" stop-color="#8F154E" stop-opacity="0.3707"/>
<stop offset="0.3632" stop-color="#820955" stop-opacity="0.495"/>
<stop offset="0.4822" stop-color="#7A025A" stop-opacity="0.6573"/>
<stop offset="0.7336" stop-color="#78005B"/>
</linearGradient>
<linearGradient id="paint3_linear_910_6771" x1="24.8279" y1="35.5084" x2="27.8494" y2="31.1627" gradientUnits="userSpaceOnUse">
<stop stop-color="#FF7E0D" stop-opacity="0"/>
<stop offset="0.0133" stop-color="#F97910" stop-opacity="0.0192"/>
<stop offset="0.1144" stop-color="#D25427" stop-opacity="0.1659"/>
<stop offset="0.219" stop-color="#B1363A" stop-opacity="0.3175"/>
<stop offset="0.3263" stop-color="#981E48" stop-opacity="0.4731"/>
<stop offset="0.4375" stop-color="#860D53" stop-opacity="0.6344"/>
<stop offset="0.5551" stop-color="#7B0359" stop-opacity="0.8048"/>
<stop offset="0.6897" stop-color="#78005B"/>
</linearGradient>
<linearGradient id="paint4_linear_910_6771" x1="15.8723" y1="13.7128" x2="22.5955" y2="6.98957" gradientUnits="userSpaceOnUse">
<stop stop-color="#FF4630" stop-opacity="0"/>
<stop offset="0.5722" stop-color="#B31F48" stop-opacity="0.5722"/>
<stop offset="1" stop-color="#78005B"/>
</linearGradient>
<linearGradient id="paint5_linear_910_6771" x1="22.9831" y1="18.1854" x2="27.4614" y2="13.707" gradientUnits="userSpaceOnUse">
<stop stop-color="#FF4630" stop-opacity="0"/>
<stop offset="0.5722" stop-color="#B31F48" stop-opacity="0.5722"/>
<stop offset="1" stop-color="#78005B"/>
</linearGradient>
<linearGradient id="paint6_linear_910_6771" x1="27.9958" y1="11.3351" x2="32.4889" y2="6.84197" gradientUnits="userSpaceOnUse">
<stop stop-color="#FF4630" stop-opacity="0"/>
<stop offset="0.5722" stop-color="#B31F48" stop-opacity="0.5722"/>
<stop offset="1" stop-color="#78005B"/>
</linearGradient>
</defs>
</svg>
