<svg width="1440" height="728" viewBox="0 0 1440 728" fill="none" xmlns="http://www.w3.org/2000/svg">
<g opacity="0.6">
<mask id="mask0" style="mask-type:alpha" maskUnits="userSpaceOnUse" x="-30" y="0" width="1500" height="728">
<rect x="-30" width="1500" height="728" fill="#C4C4C4"/>
</mask>
<g mask="url(#mask0)">
<circle r="2.25415" transform="matrix(-1 0 0 1 64.8357 2.25415)" fill="white"/>
<circle r="2.25415" transform="matrix(-1 0 0 1 799.687 51.8452)" fill="white"/>
<circle r="2.25415" transform="matrix(-1 0 0 1 127.255 138.504)" fill="white"/>
<circle r="2.25415" transform="matrix(-1 0 0 1 49.5989 646.94)" fill="white"/>
<circle r="2.25415" transform="matrix(-1 0 0 1 842.254 660.504)" fill="white"/>
<circle r="2.25415" transform="matrix(-1 0 0 1 976.254 646.504)" fill="white"/>
<circle r="2.25415" transform="matrix(-1 0 0 1 758.254 206.504)" fill="white"/>
<circle r="2.25415" transform="matrix(-1 0 0 1 672.254 123.504)" fill="white"/>
<circle r="2.25415" transform="matrix(-1 0 0 1 888.254 45.5041)" fill="white"/>
<circle r="2.25415" transform="matrix(-1 0 0 1 1028.48 157.79)" fill="white"/>
<circle r="2.25415" transform="matrix(-1 0 0 1 574.164 346.55)" fill="white"/>
<circle r="2.25415" transform="matrix(-1 0 0 1 104.719 346.55)" fill="white"/>
<circle r="2.25415" transform="matrix(-1 0 0 1 931.552 281.768)" fill="white"/>
<circle r="2.25415" transform="matrix(-1 0 0 1 462.109 281.768)" fill="white"/>
<rect x="1221.25" y="651.416" width="3.42008" height="3.42008" rx="0.467062" transform="rotate(-24.4476 1221.25 651.416)" fill="white"/>
<rect x="385.469" y="667.515" width="3.42008" height="3.42008" rx="0.467062" transform="rotate(-24.4476 385.469 667.515)" fill="white"/>
<path d="M162.958 651.94C163.153 652.249 162.94 652.654 162.575 652.668L160.04 652.766C159.675 652.78 159.432 652.394 159.602 652.071L160.784 649.826C160.954 649.503 161.411 649.485 161.606 649.794L162.958 651.94Z" fill="white"/>
<path d="M1434.87 359.03C1435.21 358.879 1435.58 359.146 1435.54 359.51L1435.29 362.034C1435.25 362.398 1434.84 362.585 1434.54 362.372L1432.48 360.891C1432.18 360.678 1432.23 360.223 1432.56 360.073L1434.87 359.03Z" fill="white"/>
<path d="M273.958 562.561C274.073 562.774 274.036 563.036 273.869 563.211L272.066 565.089C271.899 565.263 271.638 565.31 271.421 565.205L269.077 564.07C268.86 563.965 268.735 563.732 268.768 563.492L269.122 560.913C269.155 560.674 269.339 560.483 269.577 560.44L272.139 559.98C272.377 559.938 272.615 560.053 272.729 560.266L273.958 562.561Z" fill="white"/>
<path d="M363.852 454.483C363.966 454.696 363.93 454.958 363.762 455.132L361.959 457.011C361.792 457.185 361.531 457.232 361.314 457.126L358.97 455.992C358.753 455.887 358.628 455.653 358.661 455.414L359.015 452.835C359.048 452.595 359.232 452.404 359.47 452.362L362.032 451.902C362.27 451.859 362.508 451.975 362.622 452.188L363.852 454.483Z" fill="white"/>
<path d="M1378.71 55.7966C1378.95 55.7954 1379.17 55.95 1379.24 56.1794L1380.06 58.6515C1380.14 58.881 1380.05 59.1332 1379.86 59.2762L1377.76 60.8168C1377.57 60.9598 1377.3 60.9611 1377.11 60.82L1374.99 59.3C1374.8 59.1589 1374.71 58.9076 1374.79 58.6774L1375.58 56.1974C1375.65 55.9672 1375.87 55.8105 1376.11 55.8094L1378.71 55.7966Z" fill="white"/>
<path d="M1298.37 466.093C1298.45 466.184 1298.46 466.315 1298.39 466.417L1297.72 467.521C1297.66 467.624 1297.54 467.674 1297.42 467.647L1296.17 467.351C1296.05 467.323 1295.96 467.224 1295.95 467.104L1295.85 465.817C1295.84 465.698 1295.91 465.586 1296.02 465.539L1297.21 465.04C1297.32 464.994 1297.45 465.024 1297.52 465.115L1298.37 466.093Z" fill="white"/>
<path d="M1170.2 179.775C1170.44 179.774 1170.66 179.928 1170.73 180.158L1171.55 182.63C1171.62 182.859 1171.54 183.111 1171.35 183.254L1169.25 184.795C1169.06 184.938 1168.79 184.939 1168.59 184.798L1166.48 183.278C1166.28 183.137 1166.2 182.886 1166.28 182.656L1167.07 180.176C1167.14 179.945 1167.35 179.789 1167.6 179.788L1170.2 179.775Z" fill="white"/>
<path d="M1352.12 557.321C1352.22 557.468 1352.21 557.659 1352.1 557.794L1350.91 559.251C1350.79 559.386 1350.61 559.435 1350.45 559.372L1348.69 558.69C1348.53 558.627 1348.43 558.466 1348.44 558.291L1348.54 556.413C1348.55 556.239 1348.67 556.091 1348.84 556.046L1350.66 555.567C1350.83 555.523 1351.01 555.592 1351.1 555.739L1352.12 557.321Z" fill="white"/>
<path d="M1370.82 671.178C1371.06 671.177 1371.27 671.331 1371.35 671.561L1372.17 674.033C1372.24 674.262 1372.16 674.515 1371.97 674.657L1369.87 676.198C1369.67 676.341 1369.41 676.342 1369.21 676.201L1367.1 674.681C1366.9 674.54 1366.82 674.289 1366.89 674.059L1367.69 671.579C1367.76 671.349 1367.97 671.192 1368.21 671.191L1370.82 671.178Z" fill="white"/>
<circle r="2.25415" transform="matrix(-1 0 0 1 582.254 609.504)" fill="white"/>
<circle r="2.25415" transform="matrix(-1 0 0 1 280.254 344.504)" fill="white"/>
</g>
</g>
</svg>
